<?xml version="1.0" encoding="UTF-8" standalone="no"?>
<!-- Created with Inkscape (http://www.inkscape.org/) -->

<svg
   xmlns:dc="http://purl.org/dc/elements/1.1/"
   xmlns:cc="http://creativecommons.org/ns#"
   xmlns:rdf="http://www.w3.org/1999/02/22-rdf-syntax-ns#"
   xmlns:svg="http://www.w3.org/2000/svg"
   xmlns="http://www.w3.org/2000/svg"
   xmlns:sodipodi="http://sodipodi.sourceforge.net/DTD/sodipodi-0.dtd"
   xmlns:inkscape="http://www.inkscape.org/namespaces/inkscape"
   width="210mm"
   height="297mm"
   viewBox="0 0 744.09448819 1052.3622047"
   id="svg2"
   version="1.1"
   inkscape:version="0.91 r13725"
   sodipodi:docname="Unnamed document 2.svg">
  <defs
     id="defs4" />
  <sodipodi:namedview
     id="base"
     pagecolor="#ffffff"
     bordercolor="#666666"
     borderopacity="1.0"
     inkscape:pageopacity="0.0"
     inkscape:pageshadow="2"
     inkscape:zoom="0.35"
     inkscape:cx="665.99355"
     inkscape:cy="520"
     inkscape:document-units="px"
     inkscape:current-layer="layer1"
     showgrid="false"
     inkscape:window-width="683"
     inkscape:window-height="729"
     inkscape:window-x="0"
     inkscape:window-y="18"
     inkscape:window-maximized="0" />
  <metadata
     id="metadata7">
    <rdf:RDF>
      <cc:Work
         rdf:about="">
        <dc:format>image/svg+xml</dc:format>
        <dc:type
           rdf:resource="http://purl.org/dc/dcmitype/StillImage" />
        <dc:title></dc:title>
      </cc:Work>
    </rdf:RDF>
  </metadata>
  <g
     inkscape:label="Layer 1"
     inkscape:groupmode="layer"
     id="layer1">
    <path
       inkscape:connector-curvature="0"
       id="path3361"
       d="m 330.03625,462.01269 c -13.20029,-2.05103 -31.90189,-7.95833 -44.18459,-13.95667 -6.05234,-2.9557 -17.0588,-7.71775 -24.4588,-10.58232 -7.4,-2.86459 -19.0077,-8.11385 -25.7949,-11.66501 -12.30822,-6.43986 -12.35201,-6.44883 -16.81818,-3.4432 -7.55637,5.08525 -8.68238,5.49783 -8.68238,3.18126 0,-1.2089 2.26474,-3.49948 5.03275,-5.09016 l 5.03274,-2.89218 -13.18589,-9.666 c -12.73545,-9.33581 -31.01114,-26.92333 -36.60091,-35.22269 -3.28815,-4.88204 -4.6413,-4.97286 -10.77599,-0.72322 -3.42331,2.37142 -5.1092,2.76254 -5.98247,1.38794 -1.10584,-1.74069 1.47242,-4.46765 7.33205,-7.75488 1.60114,-0.89824 0.0351,-5.13779 -6.1536,-16.65842 -10.57137,-19.67938 -16.96817,-39.61335 -18.21617,-56.76607 l -0.98211,-13.49815 -8.15929,0 c -6.96146,0 -8.15928,-0.46724 -8.15928,-3.18264 0,-2.63606 1.3719,-3.26827 7.98863,-3.68131 l 7.98864,-0.49868 1.20714,-13.08912 c 2.12332,-23.02322 13.00605,-50.98042 28.48223,-73.16946 l 6.52832,-9.36001 -6.95667,-3.45264 c -4.64973,-2.30769 -6.39752,-3.99661 -5.27051,-5.093 1.127,-1.09639 3.84252,-0.56379 8.18873,1.60608 l 6.50257,3.24644 14.34414,-13.45065 c 21.07829,-19.76534 48.36459,-36.55344 74.79223,-46.0165 4.62499,-1.65609 11.05796,-4.57061 14.29546,-6.47671 25.44361,-14.980076 60.07186,-22.335456 89.02776,-18.910386 19.36932,2.29111 33.89928,6.65702 54.76769,16.456366 9.24999,4.3436 24.91428,11.59519 34.80953,16.11465 22.28452,10.17802 40.09087,21.7501 55.78784,36.25572 l 12.05524,11.14029 5.62815,-2.30219 c 3.09548,-1.2662 6.67649,-2.30218 7.95778,-2.30218 4.43303,0 2.30583,3.06885 -3.55673,5.1312 -3.2375,1.1389 -5.88636,2.64414 -5.88636,3.34499 0,0.70085 3.03523,5.15458 6.74493,9.89719 16.01348,20.47209 29.33585,53.10883 31.57066,77.3408 l 1.20714,13.08912 7.14772,0.50311 c 5.69828,0.40108 7.14774,1.12853 7.14774,3.58724 0,2.45871 -1.44946,3.18615 -7.14774,3.58723 l -7.14772,0.50312 -1.20714,13.08912 c -1.59171,17.259 -8.11856,37.38844 -18.20165,56.13564 l -8.19253,15.23215 5.81204,3.33603 c 5.74367,3.29682 7.60187,6.2851 3.90823,6.2851 -1.04706,0 -4.35818,-1.47572 -7.35801,-3.27937 l -5.45427,-3.27938 -7.13778,9.0006 c -8.1807,10.31572 -24.58296,25.63452 -35.95288,33.57801 -4.2813,2.99109 -7.78202,5.86574 -7.77935,6.38809 0.003,0.52236 2.24679,2.41107 4.98696,4.19711 2.92724,1.90797 4.36207,3.85061 3.47876,4.70993 -0.88331,0.85931 -3.38061,0.026 -6.05469,-2.02026 -2.50323,-1.91554 -5.52637,-3.48282 -6.71808,-3.48282 -1.19173,0 -7.71183,2.90125 -14.48912,6.44721 -6.77727,3.54597 -18.37686,8.79096 -25.77685,11.65555 -7.40001,2.86457 -18.53407,7.68914 -24.74238,10.72125 -24.59213,12.01067 -60.90028,17.80602 -86.56878,13.81774 z m -1.15539,-6.49387 c -2.6566,-1.70386 -9.019,-3.60707 -14.13866,-4.22934 -5.11967,-0.62229 -10.51427,-1.48776 -11.988,-1.92327 -1.57941,-0.46672 -1.31033,0.0515 0.65539,1.26241 3.41503,2.1036 23.24316,7.74285 27.77873,7.90045 1.3875,0.0483 0.34914,-1.30639 -2.30746,-3.01025 z m 35.10291,0.72435 c 4.65789,-2.07489 3.68902,-2.24752 -12.61364,-2.24752 -16.30265,0 -17.27153,0.17263 -12.61363,2.24752 2.77499,1.23615 8.45113,2.24753 12.61363,2.24753 4.1625,0 9.83864,-1.01138 12.61364,-2.24753 z m 25.22727,-1.86766 c 4.625,-1.28211 9.54432,-3.12573 10.93182,-4.09692 2.19686,-1.53773 2.17661,-1.65956 -0.15674,-0.94319 -1.47373,0.45246 -6.86833,1.33179 -11.988,1.95408 -5.11966,0.62227 -11.48207,2.58243 -14.13866,4.35591 l -4.83019,3.22447 5.88636,-1.08162 c 3.2375,-0.59488 9.67047,-2.13061 14.29546,-3.41273 z M 313.52922,99.324514 c 6.11882,-1.01057 17.22697,-7.18153 12.92727,-7.18153 -2.9874,0 -28.90453,8.249096 -28.90453,9.199946 0,0.48229 2.08124,0.47543 4.62499,-0.0152 2.54375,-0.49066 7.65227,-1.392096 11.35227,-2.003186 z m 91.37143,1.810076 c -1.34231,-1.305846 -25.26196,-8.991606 -27.98372,-8.991606 -5.71653,0 6.23326,6.28141 14.83828,7.79975 11.31255,1.996066 14.24545,2.261986 13.14544,1.191856 z m -31.66688,-4.843696 c 0,-1.53431 -7.75087,-4.7539 -14.29545,-5.93809 -7.91809,-1.43272 -21.39109,0.70963 -26.54387,4.22076 -3.32617,2.26646 -1.73931,2.47784 18.60146,2.47784 12.23082,0 22.23786,-0.34223 22.23786,-0.76051 z"
       style="fill:#8ca46f" />
    <path
       inkscape:connector-curvature="0"
       id="path3359"
       d="m 336.64896,461.74096 c -18.28835,-2.06833 -31.47523,-5.819 -49.18792,-13.99027 -8.78749,-4.05387 -20.89658,-9.1885 -26.90909,-11.41028 -6.0125,-2.2218 -16.47685,-6.94883 -23.25413,-10.50454 -6.77728,-3.55571 -13.0934,-6.46493 -14.03584,-6.46493 -0.94243,0 -3.95516,1.55284 -6.69497,3.45077 -2.73979,1.89792 -5.38661,3.0566 -5.88182,2.57486 -0.4952,-0.48177 1.44042,-2.05351 4.30138,-3.49279 2.86096,-1.43928 5.20175,-3.29886 5.20175,-4.13239 0,-0.83354 -3.59489,-3.92137 -7.98865,-6.86184 -8.89361,-5.95195 -36.72438,-32.25315 -41.97768,-39.6706 l -3.38131,-4.77427 -6.2101,3.7338 c -3.41555,2.0536 -6.64408,3.31161 -7.17451,2.79559 -0.53042,-0.51602 1.77984,-2.51338 5.13392,-4.43859 3.35408,-1.92521 6.09833,-3.78472 6.09833,-4.13225 0,-0.34753 -2.35188,-4.35035 -5.22638,-8.89514 -11.57128,-18.29495 -19.9446,-42.94449 -22.63704,-66.6393 l -1.16196,-10.22587 -7.35095,0 c -6.22973,0 -7.35095,-0.49911 -7.35095,-3.27228 0,-2.77462 1.12122,-3.27228 7.37226,-3.27228 l 7.37225,0 1.16344,-11.04395 c 2.72959,-25.91051 13.35334,-53.81074 28.53458,-74.93787 l 7.57557,-10.54262 -6.83111,-3.39033 c -8.7086,-4.32212 -7.09077,-6.28985 1.92101,-2.33648 l 6.77864,2.97372 14.68168,-13.95097 c 15.85473,-15.06564 38.1185,-30.11837 56.7913,-38.3971 6.43971,-2.85509 22.51625,-10.09699 35.72563,-16.09312 51.83479,-23.529306 86.98253,-23.515406 138.64768,0.0548 13.20939,6.02627 30.20023,13.75816 37.75742,17.18198 18.62777,8.43938 37.59939,21.10389 52.33373,34.93539 13.24753,12.43579 11.5351,11.95921 24.32365,6.76945 1.65776,-0.67274 2.94318,-0.48082 2.94318,0.43944 0,0.8986 -1.70284,2.07525 -3.78409,2.61479 -8.85972,2.29677 -8.81006,3.24382 0.87883,16.7601 18.27768,25.49786 27.74641,49.5077 30.72874,77.91881 l 1.15928,11.04394 7.49557,0 c 6.23012,0 7.40133,0.4834 6.9373,2.86325 -0.40422,2.07313 -2.47523,2.99963 -7.50496,3.35749 l -6.94667,0.49424 -1.16146,10.95874 c -2.34099,22.08813 -11.10501,47.59936 -22.59037,65.75847 l -5.24058,8.2857 5.90058,3.38686 c 8.26129,4.74191 7.41571,7.26392 -0.90643,2.70346 l -6.80698,-3.73017 -3.6313,4.90842 c -6.63711,8.97138 -28.41542,29.97724 -38.44962,37.08586 -5.44282,3.85591 -9.89602,7.50845 -9.89602,8.11676 0,0.60832 2.45966,2.63846 5.4659,4.51141 3.00626,1.87297 4.82593,3.4178 4.04372,3.43295 -0.78222,0.0147 -3.72266,-1.56601 -6.53436,-3.51374 l -5.11213,-3.54129 -14.61593,7.59771 c -8.03875,4.17875 -19.69073,9.45598 -25.89327,11.72721 -6.20252,2.27122 -16.44608,6.66174 -22.76342,9.75669 -26.35884,12.91356 -55.77387,18.44848 -82.17532,15.46259 z m -2.09701,-2.7499 c 0,-2.94732 -10.76427,-7.08631 -24.4816,-9.41344 -8.06461,-1.36814 -14.96863,-2.19016 -15.34225,-1.82667 -1.05839,1.02964 12.53471,5.99534 25.52839,9.3258 13.77606,3.53098 14.29546,3.60054 14.29546,1.91431 z m 25.30496,-0.34673 c 3.28023,-0.88651 7.44273,-2.69964 9.25,-4.02919 2.95633,-2.17484 1.18552,-2.42255 -17.65268,-2.46937 -21.90696,-0.0545 -24.10875,1.11206 -10.80604,5.72501 7.88963,2.73587 11.42161,2.8781 19.20872,0.77355 z m 24.28125,-1.97226 c 9.31181,-2.27671 24.7973,-8.0229 23.92028,-8.8761 -0.39908,-0.38825 -7.32391,0.41351 -15.38852,1.78165 -13.77339,2.33665 -24.48161,6.46771 -24.48161,9.44461 0,1.29283 2.6421,0.90353 15.94985,-2.35016 z m 26.03555,-353.7925 c -3.93627,-3.760226 -36.95199,-13.752786 -36.92845,-11.176796 0.0266,2.90257 11.56396,8.398286 19.84508,9.452946 4.90862,0.62515 10.96317,1.7348 13.45455,2.46588 6.36855,1.86881 6.36305,1.86993 3.62882,-0.74203 z m -99.16721,-1.88416 c 7.24106,-1.006646 18.46434,-6.647666 18.48851,-9.292636 0.0152,-1.56845 -5.68463,-0.30851 -21.85215,4.83112 -14.09994,4.482356 -19.68347,8.071366 -10.0909,6.486306 3.2375,-0.53497 9.29204,-1.44612 13.45454,-2.02479 z m 64.50003,-4.337486 c -2.25529,-3.55002 -15.28595,-7.71536 -24.1364,-7.71536 -8.85045,0 -21.88111,4.16534 -24.13639,7.71536 -0.63114,0.99346 8.36146,1.5834 24.13639,1.5834 15.77494,0 24.76754,-0.58994 24.1364,-1.5834 z"
       style="fill:#6a8d47" />
    <path
       inkscape:connector-curvature="0"
       id="path3357"
       d="m 321.42847,459.41131 c -13.34094,-2.81791 -27.33477,-7.84701 -38.17197,-13.71823 -4.625,-2.50567 -13.70682,-6.57701 -20.18182,-9.04741 -6.475,-2.47041 -17.95545,-7.66018 -25.51213,-11.53283 l -13.73937,-7.04117 -6.15278,4.06736 c -3.38401,2.23706 -6.54265,3.68807 -7.01917,3.22449 -0.47652,-0.46359 1.42639,-1.99632 4.22869,-3.40609 2.80231,-1.40978 5.49926,-3.1994 5.99323,-3.97696 0.49397,-0.77755 -5.77118,-6.25881 -13.92256,-12.18059 -8.15138,-5.92176 -19.62395,-16.15069 -25.49459,-22.73095 -5.87065,-6.58026 -11.60452,-12.98183 -12.74192,-14.22568 -1.74306,-1.90619 -3.02858,-1.68403 -8.18081,1.41374 -3.36203,2.02141 -6.54677,3.2531 -7.0772,2.73708 -0.53042,-0.51602 1.77984,-2.51338 5.13392,-4.43859 3.35408,-1.92521 6.09833,-3.65976 6.09833,-3.85456 0,-0.1948 -4.16105,-8.32108 -9.24677,-18.05842 -10.77926,-20.63845 -14.58952,-33.07535 -18.4457,-60.20792 l -1.10454,-7.77166 -7.46514,0 c -6.34391,0 -7.46513,-0.49148 -7.46513,-3.27228 0,-2.7808 1.12122,-3.27228 7.46513,-3.27228 l 7.46514,0 1.05641,-7.77167 c 4.66115,-34.29035 13.26296,-56.5047 31.45547,-81.2344 2.58182,-3.50956 4.69422,-6.89512 4.69422,-7.52348 0,-0.62836 -3.21648,-2.42748 -7.14773,-3.99806 -3.93125,-1.57057 -6.25301,-3.1995 -5.15947,-3.61984 1.09355,-0.42033 4.27244,0.38487 7.06421,1.78934 2.79177,1.40447 5.86548,2.55358 6.83047,2.55358 0.96499,0 6.86791,-5.00368 13.11761,-11.11928 16.62997,-16.27316 32.24898,-26.94235 55.93127,-38.20608 11.5625,-5.49934 28.2125,-13.51174 37,-17.80532 18.89763,-9.233406 31.97985,-13.339296 54.23864,-17.022936 15.27258,-2.52748 17.52286,-2.52748 32.79545,0 22.45394,3.71593 35.47112,7.81115 54.23864,17.063516 8.7875,4.33222 25.43749,12.35129 36.99999,17.82015 21.50395,10.17099 36.81235,20.30854 53.87792,35.67915 5.30192,4.77531 10.52228,8.68238 11.60085,8.68238 1.07855,0 4.2642,-1.15868 7.07923,-2.57485 2.81502,-1.41617 5.52,-2.18399 6.01106,-1.70627 0.49106,0.47772 -1.84972,2.14091 -5.20174,3.69596 -3.35203,1.55505 -6.09458,3.4252 -6.09458,4.15588 0,0.73068 3.51931,5.93222 7.82072,11.55898 9.6304,12.59779 22.80563,39.33119 26.41026,53.58817 2.2309,8.82367 5.97429,30.16209 6.09934,34.76797 0.0183,0.67491 3.49449,1.22711 7.7248,1.22711 6.41671,0 7.59898,0.47456 7.13323,2.86324 -0.40582,2.08132 -2.48194,2.99949 -7.6023,3.36212 -7.02702,0.49767 -7.04654,0.51738 -8.08659,8.1807 -3.58517,26.41623 -7.46137,39.02136 -18.49666,60.14998 l -9.03149,17.29213 5.78706,3.32171 c 3.1829,1.82695 5.78708,4.04531 5.78708,4.92971 0,0.88438 -2.549,0.0754 -5.66442,-1.79776 -3.11543,-1.87315 -6.41931,-3.40572 -7.34194,-3.40572 -0.92264,0 -6.45123,5.61438 -12.28576,12.47638 -9.30978,10.94928 -26.11546,25.53643 -38.56277,33.4721 l -4.06371,2.59078 6.59971,4.36281 c 3.62983,2.39955 5.85641,4.34644 4.94793,4.32643 -0.90848,-0.02 -3.54381,-1.47616 -5.85632,-3.23589 -2.31249,-1.75973 -5.06513,-3.21588 -6.11695,-3.23589 -1.05184,-0.02 -8.24162,3.22449 -15.97728,7.20999 -7.73567,3.98551 -19.75718,9.433 -26.7145,12.10556 -6.9573,2.67255 -15.37804,6.42525 -18.71275,8.33933 -9.44021,5.41859 -26.08967,11.32903 -39.51021,14.02581 -15.00031,3.01425 -44.77137,2.99383 -59.13724,-0.0406 z m 14.8053,0.11402 c 0,-0.412 -3.21648,-2.57962 -7.14772,-4.81691 -5.95436,-3.38868 -35.96946,-10.02123 -37.89209,-8.37317 -1.06071,0.90921 17.58664,7.82994 28.80784,10.69166 12.51756,3.19236 16.23197,3.76407 16.23197,2.49842 z m 23.62314,-0.881 c 3.28023,-0.88651 7.44273,-2.69964 9.25,-4.02919 2.95633,-2.17484 1.18552,-2.42255 -17.65268,-2.46937 -21.90696,-0.0545 -24.10875,1.11206 -10.80604,5.72501 7.88963,2.73587 11.42161,2.8781 19.20872,0.77355 z m 31.87686,-4.33511 c 6.9375,-2.15118 14.50568,-5.00821 16.81819,-6.34894 l 4.20454,-2.43771 -4.20454,0.81883 c -2.31251,0.45034 -9.50228,1.60183 -15.97728,2.55884 -10.12421,1.49636 -26.06818,8.0403 -26.06818,10.69924 0,1.35109 11.76706,-1.1165 25.22727,-5.29026 z M 307.64286,101.95471 c 9.9427,-1.69168 21.82352,-7.226396 21.85215,-10.179856 0.0277,-2.85844 -37.51132,8.673066 -39.76086,12.214026 -0.70309,1.10674 0.34635,1.38253 2.94196,0.77313 2.2192,-0.52103 8.95425,-1.78431 14.96675,-2.8073 z m 105.21167,1.79555 c -2.13121,-3.35472 -39.69028,-14.722146 -39.56792,-11.975406 0.14195,3.18422 10.56108,7.97476 22.6517,10.414796 16.31825,3.29322 18.12268,3.45969 16.91622,1.56061 z m -37.20626,-6.869226 c -2.38206,-3.74955 -15.19295,-7.93847 -24.27814,-7.93847 -5.45225,0 -12.09943,1.2588 -16.19024,3.06598 -13.09931,5.78687 -10.93675,6.679 16.19024,6.679 18.12082,0 25.09606,-0.51902 24.27814,-1.80651 z"
       style="fill:#43640e" />
    <path
       inkscape:connector-curvature="0"
       id="path3355"
       d="m 321.42847,459.41131 c -14.0179,-2.96089 -25.97943,-7.41296 -42.81535,-15.93581 -7.62115,-3.85805 -17.17216,-8.06447 -21.22447,-9.34759 -4.05231,-1.28313 -13.08634,-5.50327 -20.07565,-9.37811 l -12.70779,-7.04517 -6.56731,4.228 c -3.61202,2.3254 -6.9466,3.859 -7.41019,3.40801 -0.46359,-0.451 1.36381,-1.93014 4.06089,-3.28697 2.69708,-1.35683 5.95895,-3.80398 7.24857,-5.43809 1.28964,-1.63412 1.69959,-2.44189 0.91101,-1.79502 -2.30297,1.88905 -19.51828,-10.83002 -34.33653,-25.36864 -17.77566,-17.44022 -19.73456,-20.16268 -16.89918,-23.4863 1.19385,-1.39944 -2.23399,-0.22616 -7.61741,2.60727 -10.7131,5.63858 -15.23352,5.62402 -5.40507,-0.0173 3.35408,-1.92528 6.09833,-4.17861 6.09833,-5.00749 0,-0.82887 -1.93611,-4.49073 -4.30246,-8.13747 -11.20735,-17.27139 -18.9714,-40.31779 -23.51278,-69.79408 l -1.07133,-6.95359 -7.42035,0 c -6.29914,0 -7.42036,-0.49444 -7.42036,-3.27228 0,-3.14643 1.24518,-3.28619 32.375,-3.63407 31.41398,-0.35105 31.63663,-0.37665 7.50048,-0.86219 l -24.87451,-0.5004 1.01449,-6.0914 c 4.19822,-25.20779 8.52619,-40.02452 16.18626,-55.41345 4.54439,-9.12958 10.88875,-19.94529 14.09858,-24.0349 3.20984,-4.08962 5.83607,-8.10442 5.83607,-8.92178 0,-0.81736 -3.21648,-2.77112 -7.14773,-4.3417 -3.93125,-1.57057 -6.24366,-3.20253 -5.13869,-3.62657 1.10497,-0.42405 3.67012,0.0938 5.70033,1.15088 4.99257,2.59937 13.3053,4.84353 12.89608,3.48152 -1.18509,-3.94439 22.69233,-25.67601 40.99396,-37.30997 11.05259,-7.02589 33.9127,-18.44503 38.19938,-19.08146 1.72766,-0.2565 4.95469,-1.58307 7.17121,-2.94795 9.99986,-6.15769 31.90585,-16.166746 41.87091,-19.131226 6.0125,-1.78864 18.31079,-4.47323 27.32955,-5.96576 15.2563,-2.52478 17.53914,-2.52558 32.79545,-0.0115 23.18933,3.82146 39.12891,9.1292 58.02273,19.321066 9.01875,4.86497 16.39773,8.47891 16.39773,8.03099 0,-0.44793 1.32443,0.59031 2.94318,2.3072 1.61875,1.71689 2.28289,2.16658 1.47589,0.99933 -2.21323,-3.20121 -0.39352,-2.66158 12.86154,3.81405 16.48474,8.05344 38.46128,22.90809 51.60995,34.88481 5.97732,5.44457 11.88025,9.8992 13.11761,9.8992 1.23739,0 4.55297,-1.15868 7.368,-2.57485 2.81502,-1.41617 5.49964,-2.2038 5.96583,-1.75028 0.46616,0.45351 -2.22079,2.34743 -5.97104,4.20869 l -6.81861,3.38413 9.29274,12.60038 c 17.39059,23.58054 25.77358,44.98347 31.73708,81.0291 l 1.00777,6.0914 -24.87452,0.5004 c -24.02575,0.48333 -23.76561,0.51275 7.62379,0.86219 29.92967,0.33319 32.4542,0.5881 31.94005,3.22503 -0.40631,2.08384 -2.48407,2.99944 -7.63289,3.36358 -6.73756,0.47648 -7.12059,0.78829 -8.03945,6.54456 -4.95964,31.06998 -10.17598,47.78547 -20.31187,65.0886 -4.04604,6.90703 -6.94691,13.20286 -6.44636,13.99075 0.50052,0.78788 3.13252,2.55058 5.84886,3.9171 2.71635,1.36652 4.93881,3.28662 4.93881,4.26689 0,1.04505 -1.74351,0.67093 -4.21493,-0.90443 -5.5746,-3.55342 -12.67523,-6.12795 -12.16691,-4.41146 1.04739,3.53681 -27.44803,32.14495 -42.31143,42.4788 -6.12795,4.26048 -7.84334,4.79257 -9.99329,3.09977 -2.10154,-1.65466 -2.34205,-1.6338 -1.26382,0.10962 0.73241,1.18429 4.39693,4.31341 8.14336,6.9536 3.74644,2.64019 6.24736,4.80035 5.55762,4.80035 -0.68975,0 -3.27658,-1.40103 -5.74849,-3.11338 -6.6065,-4.57648 -8.77073,-4.56679 -16.20666,0.0725 -8.22438,5.13123 -18.81461,10.38987 -24.17652,12.00498 -3.06775,0.92408 -3.72176,0.68805 -2.81846,-1.01717 0.76355,-1.44139 0.39489,-1.35939 -1.05075,0.23375 -2.77691,3.06024 -30.54558,17.02612 -42.51838,21.38404 -21.90645,7.97365 -56.71342,10.40719 -79.62755,5.56721 z m 11.44167,-2.41815 c -2.31251,-1.76469 -7.23183,-4.23504 -10.93183,-5.48963 -7.06105,-2.39428 -32.79545,-7.39092 -32.79545,-6.36762 0,1.48587 19.23559,8.93276 30.46104,11.7927 16.11284,4.10513 18.57686,4.11712 13.26624,0.0645 z m 27.32677,1.55984 c 3.46723,-0.93673 8.03418,-3.32548 10.14877,-5.30832 2.1146,-1.98284 3.09971,-3.05296 2.18915,-2.37805 -2.4766,1.83562 -40.35762,1.48082 -42.70133,-0.39994 -1.11512,-0.89488 -0.63005,-0.11207 1.07794,1.73947 3.26863,3.54338 13.92275,7.8812 19.61778,7.98734 1.85,0.0345 6.20046,-0.70374 9.66769,-1.6405 z m 29.85504,-3.59163 c 9.77509,-2.89386 23.54546,-8.71258 23.54546,-9.94922 0,-0.92938 -26.21098,4.25871 -32.79545,6.49138 -3.70001,1.25459 -8.61932,3.7655 -10.93183,5.57975 l -4.20454,3.29865 6.72727,-1.09214 c 3.7,-0.60066 11.6466,-2.54847 17.65909,-4.32842 z m -74,-10.02993 c 0,-0.33975 -1.32443,-1.62821 -2.94318,-2.86325 -2.66747,-2.03514 -2.72696,-1.97727 -0.63498,0.61774 2.19706,2.7254 3.57816,3.59212 3.57816,2.24551 z m -71.47727,-25.5605 c -3.61295,-3.59951 -7.14292,-6.54456 -7.84438,-6.54456 -1.30397,0 12.27002,12.97402 13.65161,13.04822 0.41898,0.0226 -2.19428,-2.90415 -5.80723,-6.50366 z m 222.84091,-7.70329 c 0,-1.22854 -1.50999,0.0704 -8.47938,7.29426 l -7.4979,7.77166 7.98864,-7.29425 c 4.39375,-4.01184 7.98864,-7.50908 7.98864,-7.77167 z m -210.22728,10.41109 c 0,-0.31048 -1.70283,-1.96707 -3.78408,-3.68132 l -3.78409,-3.11683 3.20384,3.68132 c 3.01082,3.45952 4.36433,4.42615 4.36433,3.11683 z m 203.5,-13.5868 c 0,-0.20948 -0.94601,-0.91048 -2.10227,-1.5578 -1.15625,-0.64733 -1.51761,-0.55148 -0.80302,0.21299 0.71459,0.76445 -1.93427,4.74788 -5.88636,8.85204 l -7.18562,7.46212 7.98864,-7.29425 c 4.39374,-4.01184 7.98863,-7.46563 7.98863,-7.6751 z m 13.66908,-5.07336 c 2.09196,-2.59502 2.03248,-2.65289 -0.63498,-0.61774 -1.61875,1.23504 -2.94318,2.5235 -2.94318,2.86324 0,1.34661 1.38108,0.4799 3.57816,-2.2455 z m -8.40909,-1.63614 c 2.09196,-2.59502 2.03248,-2.65289 -0.63498,-0.61774 -2.80149,2.1374 -3.6924,3.48098 -2.3082,3.48098 0.34922,0 1.67367,-1.28846 2.94318,-2.86324 z M 293.73283,387.29578 c -0.55886,-0.54367 -2.00944,-0.60179 -3.22349,-0.12909 -1.34164,0.52229 -0.94313,0.90998 1.0161,0.98849 1.77291,0.071 2.76624,-0.31566 2.20739,-0.85934 z m 43.72727,-1.63614 c -0.55887,-0.54367 -2.00943,-0.60179 -3.22349,-0.12909 -1.34163,0.52229 -0.94313,0.90999 1.01611,0.98849 1.7729,0.071 2.76624,-0.31566 2.20738,-0.85934 z m 39.55776,-0.0951 c -1.15625,-0.45388 -3.04829,-0.45388 -4.20455,0 -1.15624,0.45388 -0.21022,0.82525 2.10227,0.82525 2.31251,0 3.25853,-0.37137 2.10228,-0.82525 z m -26.02373,-5.01413 c -3.4443,-0.35158 -9.49885,-0.35643 -13.45455,-0.0114 -3.9557,0.34563 -1.13763,0.63328 6.26237,0.63922 7.4,0.007 10.63647,-0.27685 7.19218,-0.62841 z m 22.66009,0.005 c -3.00625,-0.36293 -7.92556,-0.36293 -10.93181,0 -3.00625,0.36294 -0.54659,0.6599 5.4659,0.6599 6.0125,0 8.47216,-0.29696 5.46591,-0.6599 z m -16.81817,-24.5421 c -3.00625,-0.36293 -7.92558,-0.36293 -10.93183,0 -3.00625,0.36294 -0.54659,0.6599 5.46591,0.6599 6.01251,0 8.47216,-0.29696 5.46592,-0.6599 z m -17.67578,-26.16202 c -0.33477,-5.20715 -0.61178,-1.36865 -0.61556,8.53 -0.003,9.89864 0.2701,14.15903 0.60867,9.46753 0.33854,-4.6915 0.34165,-12.79039 0.007,-17.99753 z m 25.22727,0 c -0.33476,-5.20715 -0.61178,-1.36865 -0.61556,8.53 -0.003,9.89864 0.27009,14.15903 0.60867,9.46753 0.33855,-4.6915 0.34165,-12.79039 0.007,-17.99753 z m 58.76783,17.22199 c -0.53688,-1.3052 -0.9354,-0.91752 -1.01609,0.9885 -0.0729,1.72476 0.32446,2.69111 0.88332,2.14744 0.55885,-0.54369 0.61859,-1.95486 0.1327,-3.13594 z m -149.68183,-4.90842 c -0.53686,-1.3052 -0.93539,-0.91752 -1.01609,0.9885 -0.0729,1.72476 0.32446,2.69111 0.88334,2.14744 0.55885,-0.54369 0.61858,-1.95486 0.13269,-3.13594 z m 156.4091,0 c -0.53688,-1.3052 -0.93539,-0.91752 -1.01609,0.9885 -0.0731,1.72476 0.32446,2.69111 0.88332,2.14744 0.55886,-0.54369 0.6186,-1.95486 0.1327,-3.13594 z M 271.7567,330.61036 c -0.46656,-1.12485 -0.8483,-0.20452 -0.8483,2.04517 0,2.24969 0.38174,3.17002 0.8483,2.04518 0.46655,-1.12485 0.46655,-2.96551 0,-4.09035 z m 159.77272,0 c -0.46655,-1.12485 -0.84829,-0.20452 -0.84829,2.04517 0,2.24969 0.38174,3.17002 0.84829,2.04518 0.46656,-1.12485 0.46656,-2.96551 0,-4.09035 z M 255.05101,326.7586 c -0.55887,-0.54367 -2.00943,-0.60178 -3.22349,-0.12909 -1.34163,0.52229 -0.94313,0.90999 1.01611,0.98849 1.7729,0.071 2.76623,-0.31566 2.20738,-0.85933 z m -55.57745,-5.86282 c -0.53689,-1.3052 -0.93541,-0.91752 -1.0161,0.9885 -0.073,1.72476 0.32447,2.69111 0.88332,2.14744 0.55885,-0.54369 0.6186,-1.95486 0.13278,-3.13594 z m 106.93994,2.50584 c -1.13864,-0.44817 -3.4091,-0.47544 -5.04545,-0.0607 -1.63636,0.41483 -0.70474,0.78152 2.07027,0.81486 2.77499,0.0334 4.11383,-0.30605 2.97518,-0.75424 z m 92.5,0 c -1.13864,-0.44817 -3.4091,-0.47544 -5.04545,-0.0607 -1.63636,0.41483 -0.70473,0.78152 2.07026,0.81486 2.775,0.0334 4.11383,-0.30605 2.97519,-0.75424 z M 270.15052,312.6319 c -0.40227,-2.03521 -0.74669,-0.75534 -0.76535,2.84416 -0.0187,3.59951 0.31047,5.26469 0.73142,3.70039 0.42094,-1.56429 0.43621,-4.50934 0.034,-6.54455 z m 19.41279,7.48707 c -1.15624,-0.45388 -3.04829,-0.45388 -4.20454,0 -1.15625,0.45388 -0.21022,0.82525 2.10227,0.82525 2.3125,0 3.25853,-0.37137 2.10227,-0.82525 z m 125.26043,0.0951 c -0.55887,-0.54367 -2.00944,-0.60179 -3.2235,-0.12909 -1.34163,0.52229 -0.94312,0.90999 1.01611,0.98849 1.77291,0.071 2.76623,-0.31566 2.20739,-0.85934 z m 18.46057,-9.23735 c -0.40085,-2.02472 -0.72884,-0.36813 -0.72884,3.68131 0,4.04945 0.32799,5.70604 0.72884,3.68132 0.40089,-2.02473 0.40089,-5.33791 0,-7.36263 z m -31.91512,7.60123 c -0.55887,-0.54368 -2.00944,-0.60179 -3.22349,-0.1291 -1.34163,0.52229 -0.94313,0.90999 1.01611,0.98849 1.7729,0.071 2.76623,-0.31566 2.20738,-0.85933 z m -80.69224,-1.77552 c -1.61875,-0.41152 -4.26761,-0.41152 -5.88636,0 -1.61875,0.41154 -0.29432,0.74826 2.94318,0.74826 3.2375,0 4.56193,-0.33672 2.94318,-0.74826 z m 65.61052,0.003 c -1.60797,-0.4095 -4.63525,-0.42436 -6.72727,-0.0331 -2.09203,0.39135 -0.77643,0.72642 2.92357,0.74458 3.7,0.0182 5.41167,-0.30205 3.8037,-0.71156 z M 187.71744,303.64519 c -0.42641,-1.59192 -0.80335,-0.6856 -0.83762,2.01403 -0.0343,2.69963 0.31461,4.0021 0.7753,2.89438 0.46069,-1.10771 0.48873,-3.3165 0.0623,-4.90841 z m 327.90289,0.78693 c -0.46655,-1.12485 -0.84829,-0.20452 -0.84829,2.04517 0,2.2497 0.38174,3.17002 0.84829,2.04518 0.46655,-1.12485 0.46655,-2.9655 0,-4.09035 z m -213.44338,-7.26337 c -1.61875,-0.41152 -4.26761,-0.41152 -5.88636,0 -1.61876,0.41154 -0.29432,0.74826 2.94318,0.74826 3.2375,0 4.56193,-0.33672 2.94318,-0.74826 z m 36.71779,-9.10623 0.13824,-9.41598 -0.64065,8.94208 -0.64064,8.94207 -12.95214,0.57306 -12.95216,0.57304 13.45455,-0.0991 13.45454,-0.0992 0.13824,-9.416 z m 44.00949,9.01317 -18.07955,-0.52594 -0.30315,-9.35245 -0.30314,-9.35245 -0.63836,7.97281 c -1.01386,12.66267 -1.23349,12.5244 19.27141,12.13145 l 18.13233,-0.34748 -18.07954,-0.52594 z m 31.95454,0.0931 c -1.61875,-0.41152 -4.26761,-0.41152 -5.88636,0 -1.61875,0.41154 -0.29432,0.74825 2.94318,0.74825 3.2375,0 4.56193,-0.33671 2.94318,-0.74825 z m 102.51645,-9.09807 c -0.40086,-2.02472 -0.72885,-0.36813 -0.72885,3.68132 0,4.04944 0.32799,5.70603 0.72885,3.68131 0.40089,-2.02472 0.40089,-5.33791 0,-7.36263 z M 194.49809,283.1916 c -0.37431,-2.94071 -0.68829,-0.92918 -0.69773,4.47009 -0.009,5.39926 0.29682,7.8053 0.68057,5.34675 0.38374,-2.45854 0.39147,-6.87612 0.0172,-9.81684 z m -8.47908,3.34524 c -0.53689,-1.3052 -0.9354,-0.91751 -1.0161,0.98851 -0.073,1.72475 0.32447,2.6911 0.88332,2.14743 0.55886,-0.54369 0.61861,-1.95486 0.13278,-3.13594 z m 45.60834,-15.64364 -36.49278,-0.47433 -0.61656,-8.55806 -0.61657,-8.55806 -0.31111,9.4078 -0.3111,9.40781 37.42045,-0.37541 37.42045,-0.37543 -36.49278,-0.47432 z m 107.23948,-11.04589 0.11033,-11.45298 -0.60585,11.11049 -0.60584,11.1105 -32.56229,-0.47559 c -17.90926,-0.26157 -32.20038,0.0923 -31.75806,0.78644 0.44234,0.69411 15.31836,1.06225 33.05783,0.81807 l 32.25355,-0.44395 0.11033,-11.45298 z m 58.19629,11.04563 -32.51156,-0.4823 0.55701,-11.26638 c 0.30636,-6.1965 -0.0101,-10.92266 -0.70435,-10.50256 -1.5603,0.94484 -1.68513,20.88289 -0.14009,22.38589 0.61665,0.59993 15.56381,0.92357 33.21591,0.7192 l 32.09464,-0.37155 -32.51156,-0.4823 z m 94.31837,0.003 c -10.40624,-0.28704 -27.43465,-0.28704 -37.8409,0 -10.40625,0.28706 -1.89204,0.52193 18.92045,0.52193 20.8125,0 29.3267,-0.23487 18.92045,-0.52193 z m -305.39752,-10.6396 c -0.46656,-1.12484 -0.84829,-0.20451 -0.84829,2.04518 0,2.24969 0.38173,3.17002 0.84829,2.04517 0.46656,-1.12484 0.46656,-2.9655 0,-4.09035 z m 331.39125,-6.54455 c -0.40086,-2.02473 -0.72885,-0.36814 -0.72885,3.68131 0,4.04945 0.32799,5.70604 0.72885,3.68131 0.40089,-2.02472 0.40089,-5.3379 0,-7.36262 z M 187.66579,242.25881 c -0.46656,-1.12485 -0.84829,-0.20452 -0.84829,2.04517 0,2.24969 0.38173,3.17002 0.84829,2.04518 0.46655,-1.12485 0.46655,-2.96551 0,-4.09035 z m 327.98957,0.10226 c -0.53687,-1.3052 -0.93539,-0.91752 -1.01609,0.9885 -0.0729,1.72475 0.32448,2.69111 0.88333,2.14744 0.55886,-0.54369 0.61859,-1.95486 0.1327,-3.13594 z m -82.36847,-11.53616 c -0.40228,-2.03522 -0.7467,-0.75535 -0.76536,2.84416 -0.0187,3.59951 0.31047,5.26469 0.73142,3.70039 0.42094,-1.56429 0.43621,-4.50934 0.034,-6.54455 z m -163.13637,-1.63614 c -0.40227,-2.03522 -0.74669,-0.75535 -0.76535,2.84416 -0.0187,3.59951 0.31047,5.26469 0.73142,3.70039 0.42094,-1.56429 0.43621,-4.50934 0.034,-6.54455 z m 6.70328,-7.35058 c -0.42641,-1.59191 -0.80334,-0.68559 -0.83761,2.01404 -0.0343,2.69963 0.3146,4.0021 0.7753,2.89438 0.46068,-1.10771 0.48872,-3.3165 0.0622,-4.90842 z m 149.68181,0 c -0.4264,-1.59191 -0.80333,-0.68559 -0.83761,2.01404 -0.0343,2.69963 0.3146,4.0021 0.77531,2.89438 0.46068,-1.10771 0.48871,-3.3165 0.0624,-4.90842 z m -154.77891,-9.0299 c -0.46656,-1.12485 -0.8483,-0.20452 -0.8483,2.04517 0,2.2497 0.38174,3.17003 0.8483,2.04518 0.46655,-1.12485 0.46655,-2.9655 0,-4.09035 z m 159.82437,-0.78693 c -0.42641,-1.59191 -0.80333,-0.6856 -0.83761,2.01403 -0.0343,2.69964 0.31459,4.00211 0.7753,2.89439 0.46069,-1.10772 0.48872,-3.31651 0.0624,-4.90842 z m -6.74389,-2.38309 c -0.53687,-1.3052 -0.9354,-0.91751 -1.01608,0.9885 -0.0731,1.72476 0.32445,2.69111 0.88332,2.14743 0.55885,-0.54367 0.61859,-1.95484 0.1327,-3.13593 z m -151.36364,-6.54456 c -0.53686,-1.3052 -0.93539,-0.91751 -1.01609,0.9885 -0.0729,1.72476 0.32446,2.69111 0.88334,2.14743 0.55885,-0.54367 0.61858,-1.95484 0.13269,-3.13593 z m 143.61669,-3.49162 c 2.55454,-0.56543 2.43792,-0.67888 -0.52386,-0.50965 -2.55167,0.1458 -3.86447,1.29836 -3.97516,3.48998 -0.11537,2.2837 0.0429,2.43766 0.52387,0.50964 0.37904,-1.51945 2.16786,-3.08993 3.97515,-3.48997 z m 12.79241,3.49162 c -0.53688,-1.3052 -0.93539,-0.91751 -1.01609,0.9885 -0.0731,1.72476 0.32446,2.69111 0.88332,2.14743 0.55886,-0.54367 0.6186,-1.95484 0.1327,-3.13593 z m -167.22842,-4.04909 c -1.15625,-0.45388 -3.0483,-0.45388 -4.20454,0 -1.15625,0.45389 -0.21022,0.82525 2.10227,0.82525 2.3125,0 3.25853,-0.37136 2.10227,-0.82525 z m 4.16952,-4.81333 c -0.55887,-0.54368 -2.00944,-0.60181 -3.22349,-0.12918 -1.34164,0.5223 -0.94313,0.91 1.0161,0.9885 1.77291,0.071 2.76624,-0.31565 2.20739,-0.85933 z m 148.45549,0.26699 c 0,-0.39683 -0.75683,-1.17655 -1.68182,-1.7327 -0.92501,-0.55616 -1.68182,-0.23148 -1.68182,0.72151 0,0.95298 0.75681,1.7327 1.68182,1.7327 0.92499,0 1.68182,-0.32468 1.68182,-0.72151 z m 31.49905,-0.26699 c -0.55887,-0.54368 -2.00943,-0.60181 -3.22348,-0.12918 -1.34165,0.5223 -0.94314,0.91 1.01609,0.9885 1.77291,0.071 2.76625,-0.31565 2.20739,-0.85933 z m -1.68182,-4.90842 c -0.55886,-0.54368 -2.00943,-0.60181 -3.22349,-0.12918 -1.34164,0.5223 -0.94313,0.91 1.0161,0.9885 1.77291,0.0711 2.76625,-0.31565 2.20739,-0.85933 z m -44.9536,-20.89905 c 0,-0.33976 -1.32443,-1.62822 -2.94318,-2.86325 -2.66747,-2.03514 -2.72696,-1.97727 -0.63499,0.61774 2.19707,2.72539 3.57817,3.59211 3.57817,2.24551 z m -6.72727,-4.90842 c 0,-0.33976 -1.32443,-1.62822 -2.94318,-2.86325 -2.66747,-2.03514 -2.72696,-1.97727 -0.635,0.61774 2.19708,2.72539 3.57818,3.59211 3.57818,2.24551 z M 235.53921,151.45305 c 2.09197,-2.59501 2.03248,-2.65288 -0.63499,-0.61774 -1.61875,1.23503 -2.94318,2.52349 -2.94318,2.86325 0,1.3466 1.38109,0.47988 3.57817,-2.24551 z m -8.40909,-1.63614 c 2.09196,-2.59501 2.03247,-2.65288 -0.63499,-0.61774 -1.61875,1.23503 -2.94318,2.52349 -2.94318,2.86325 0,1.3466 1.38109,0.47988 3.57817,-2.24551 z m 13.45455,-4.90842 c 2.09196,-2.59501 2.03247,-2.65288 -0.635,-0.61774 -1.61875,1.23503 -2.94318,2.52349 -2.94318,2.86325 0,1.3466 1.3811,0.47988 3.57818,-2.24551 z m 225.1491,2.24551 c 0,-0.33976 -1.32444,-1.62822 -2.94319,-2.86325 -2.66745,-2.03514 -2.72694,-1.97727 -0.63498,0.61774 2.19708,2.72539 3.57817,3.59211 3.57817,2.24551 z m -20.18182,-19.58043 c 0,-0.31047 -1.70284,-1.96707 -3.78409,-3.68132 l -3.78409,-3.11683 3.20385,3.68132 c 3.01082,3.45953 4.36433,4.42615 4.36433,3.11683 z m -183.10364,-3.9349 c 2.09196,-2.59501 2.03247,-2.65288 -0.635,-0.61773 -1.61875,1.23503 -2.94318,2.52349 -2.94318,2.86324 0,1.3466 1.3811,0.47989 3.57818,-2.24551 z m 42.77,-20.94351 c 9.53075,-1.15845 9.8595,-1.07962 7.45874,1.78842 -1.38131,1.65015 1.78421,-0.26736 7.03447,-4.26113 5.25027,-3.993766 9.60197,-7.795186 9.67045,-8.447596 0.33294,-3.17152 -36.79808,8.605586 -40.38384,12.808836 -1.73753,2.03673 -1.42714,2.16289 2.10605,0.85606 2.27915,-0.843 8.6305,-2.07806 14.11413,-2.74459 z m 84.63037,1.48061 c -2.10509,-2.4676 -1.46426,-2.59126 7.67328,-1.48061 5.48362,0.66653 11.83498,1.90159 14.11413,2.74459 3.53319,1.30683 3.84357,1.18067 2.10605,-0.85606 -3.5856,-4.20305 -40.7178,-15.980716 -40.38326,-12.808836 0.11218,1.06367 16.63108,14.684806 18.16035,14.974656 0.34452,0.0653 -0.40723,-1.09289 -1.67055,-2.57374 z m -13.75577,-6.306296 c -1.171,-3.79775 -15.46004,-8.99877 -24.72278,-8.99877 -9.26273,0 -23.55178,5.20102 -24.72277,8.99877 -0.32064,1.03985 8.68948,1.63614 24.72277,1.63614 16.0333,0 25.04342,-0.59629 24.72278,-1.63614 z"
       style="fill:#3c690e" />
    <path
       inkscape:connector-curvature="0"
       id="path3353"
       d="m 321.42847,459.41131 c -25.2811,-5.33994 -54.62459,-19.84116 -71.89663,-35.5305 l -12.14648,-11.03347 -8.17806,3.48495 c -4.49794,1.91672 -10.3029,4.93737 -12.89991,6.71257 -2.59701,1.7752 -5.05626,2.90227 -5.46501,2.50462 -0.71576,-0.69633 5.78513,-5.50918 17.40271,-12.88388 4.826,-3.06348 5.25635,-3.87855 3.36364,-6.37051 -12.43015,-16.3655 -22.33388,-32.89315 -30.10163,-50.23448 l -2.34151,-5.22737 -10.93182,5.33179 c -6.0125,2.93248 -16.12891,8.08233 -22.4809,11.44411 -11.46698,6.06887 -17.49844,7.25718 -8.3582,1.64672 2.624,-1.61066 6.39823,-4.44066 8.38717,-6.28889 1.98894,-1.84823 9.74633,-6.29471 17.23864,-9.88106 7.4923,-3.58637 13.62238,-6.96374 13.62238,-7.5053 0,-0.54155 -1.82405,-8.27288 -4.05343,-17.18073 -2.22939,-8.90785 -4.53119,-20.98181 -5.1151,-26.83101 -0.58391,-5.8492 -1.47526,-13.39589 -1.98075,-16.77043 l -0.9191,-6.13552 -31.80672,0 c -30.6855,0 -31.80672,-0.11535 -31.80672,-3.27228 0,-3.15693 1.12122,-3.27228 31.80672,-3.27228 l 31.80672,0 0.90533,-6.13553 c 0.49792,-3.37453 1.37948,-11.28936 1.95901,-17.5885 1.24041,-13.48261 7.76078,-39.81087 12.55294,-50.68689 1.8581,-4.21705 3.37837,-8.24183 3.37837,-8.94396 0,-0.70213 -6.81135,-3.64691 -15.13636,-6.54396 -8.325,-2.89704 -15.13636,-5.88575 -15.13636,-6.64157 0,-0.75581 -2.63833,-2.22128 -5.86294,-3.2566 -3.22462,-1.03531 -6.37024,-2.68092 -6.99026,-3.6569 -1.36027,-2.14118 -0.58376,-1.92539 24.44262,6.79262 10.53669,3.67048 19.79497,6.6736 20.57395,6.6736 0.77897,0 3.24001,-3.49725 5.46896,-7.77167 5.58914,-10.71822 21.62453,-32.33665 31.05558,-41.8682 10.00893,-10.11559 24.43497,-20.01185 41.47118,-28.44923 16.31567,-8.080516 30.03349,-12.293096 51.71591,-15.881356 15.2563,-2.52478 17.53914,-2.52558 32.79545,-0.0114 36.95535,6.09002 67.68116,20.482836 90.60842,42.443486 11.49501,11.01037 32.16343,38.03771 34.65977,45.3233 0.52631,1.53605 4.46982,0.69353 15.04455,-3.21423 7.8822,-2.91274 15.23901,-5.29591 16.34847,-5.29591 1.10945,0 4.32039,-1.15868 7.13542,-2.57485 2.81502,-1.41617 5.46542,-2.23709 5.88978,-1.82426 1.20951,1.17666 -19.31765,11.67156 -30.7805,15.73711 l -10.35546,3.67279 4.87525,11.50154 c 6.81276,16.07237 12.80956,40.25161 14.90144,60.08294 0.97633,9.25554 1.77513,17.11837 1.77513,17.47296 0,0.3546 14.43505,0.64472 32.07785,0.64472 29.64458,0 32.03498,0.2172 31.51237,2.86324 -0.51068,2.58576 -3.61005,2.90636 -31.98031,3.30803 l -31.41484,0.44479 -0.87861,6.91784 c -0.48324,3.80481 -1.34463,11.33542 -1.91422,16.73468 -0.56957,5.39927 -2.93707,17.41804 -5.26109,26.70838 -2.32403,9.29035 -3.9662,17.08031 -3.64924,17.31103 0.31696,0.23073 6.31825,3.06785 13.33623,6.30469 7.01799,3.23686 14.96459,7.66991 17.65909,9.85123 2.69453,2.18132 6.60198,4.83759 8.68322,5.90283 2.08125,1.06523 3.7841,2.62301 3.7841,3.46175 0,0.83873 -8.78641,-2.9174 -19.52534,-8.34698 -28.67452,-14.49772 -26.8067,-14.18488 -30.29815,-5.07485 -4.02159,10.49323 -15.01466,29.5819 -22.79598,39.58357 -3.53429,4.54279 -6.42598,8.54008 -6.42598,8.88288 0,0.34281 2.45965,2.15742 5.4659,4.0325 9.12609,5.69214 18.6924,13.27539 16.74703,13.27539 -1.00793,0 -2.23522,-0.63376 -2.72731,-1.40834 -0.49208,-0.77458 -5.90134,-3.73491 -12.02059,-6.57853 l -11.12589,-5.17018 -13.00921,11.89598 c -18.42585,16.84908 -46.89932,30.96601 -73.52758,36.45439 -14.33849,2.95533 -45.02173,2.9235 -59.15311,-0.0614 z m 14.8053,0.0782 c 0,-0.43175 -3.87555,-2.93828 -8.61232,-5.5701 -4.73677,-2.63179 -11.75763,-8.5153 -15.60188,-13.07444 -7.97682,-9.46019 -19.7961,-30.41556 -22.95491,-40.69863 -1.17482,-3.82448 -2.2621,-6.9536 -2.41617,-6.9536 -0.15405,0 -5.52119,1.7375 -11.92697,3.86111 -17.52175,5.80873 -29.30593,11.05548 -29.30593,13.0481 0,2.59831 17.00947,17.57671 28.19469,24.82802 18.87609,12.23723 21.49649,13.7715 28.05158,16.42442 11.46545,4.64021 34.57191,10.07739 34.57191,8.13512 z m 30.0763,-3.20656 c 9.37658,-4.71712 26.48974,-24.87296 34.52443,-40.66277 4.21619,-8.28564 8.12658,-17.34174 8.6898,-20.12465 l 1.024,-5.05983 -13.19136,-2.3028 c -20.06159,-3.50211 -69.69908,-3.05454 -89.41754,0.80626 -15.50894,3.03659 -15.66916,3.11704 -14.62448,7.34322 0.58093,2.35015 4.39808,11.00429 8.48254,19.23142 8.93501,17.99726 27.64939,38.54053 38.64085,42.41709 7.62892,2.6906 18.64212,1.9891 25.87176,-1.64794 z m 25.50411,-1.91055 c 16.9005,-5.12328 39.14415,-18.78976 58.19745,-35.75651 l 11.48712,-10.22915 -6.71203,-3.29708 c -8.59266,-4.22087 -31.56257,-11.89692 -35.60048,-11.89692 -2.27759,0 -4.10179,2.72779 -6.8997,10.31735 -4.54272,12.32254 -16.55859,32.39783 -24.25945,40.53103 -3.04883,3.22001 -9.1382,7.85269 -13.53196,10.29486 -4.39375,2.44216 -7.98863,4.81075 -7.98863,5.26354 0,1.32323 11.6096,-1.07465 25.30768,-5.22712 z M 267.27922,395.54873 c 7.86251,-2.51676 14.8875,-5.05736 15.61111,-5.64576 0.7236,-0.58842 -0.95342,-10.21256 -3.72674,-21.38698 -2.7733,-11.17441 -5.55079,-24.55064 -6.1722,-29.72493 -0.90444,-7.53107 -1.72903,-9.40781 -4.13359,-9.40781 -5.78512,0 -21.09305,3.98215 -41.1013,10.69195 -23.5342,7.89221 -23.06635,6.92497 -12.94466,26.76238 7.15143,14.016 13.66182,24.31615 21.00566,33.23323 l 4.99086,6.06003 6.0877,-3.0031 c 3.34825,-1.6517 12.52066,-5.06225 20.38316,-7.57901 z m 203.98112,-1.13286 c 7.27839,-9.92272 21.69087,-36.05788 23.81678,-43.18863 0.92864,-3.1148 -0.25433,-3.99037 -10.36345,-7.67039 -17.80075,-6.47999 -44.97605,-13.98318 -51.12334,-14.11532 -2.05951,-0.0443 -2.98413,2.20422 -3.84473,9.34953 -0.95113,7.89709 -7.47116,37.06103 -10.39271,46.48639 -0.67155,2.16653 1.89294,3.58128 12.60896,6.95605 10.39244,3.27285 23.911,8.53846 31.52201,12.27813 0.15002,0.0738 3.64949,-4.46937 7.77648,-10.09576 z m -162.68052,-9.42931 c 24.1743,-4.33168 68.41675,-4.6371 89.22965,-0.61597 7.80439,1.50783 14.61762,2.32531 15.14054,1.81661 2.25653,-2.19525 10.80541,-39.62514 11.17441,-48.92536 l 0.4048,-10.20255 -13.58778,-1.9138 c -7.47327,-1.0526 -21.28521,-2.4498 -30.69318,-3.10487 l -17.1054,-1.19105 0,17.35596 0,17.35596 -11.77273,0 -11.77272,0 0,-17.42096 0,-17.42097 -16.39774,1.05239 c -9.01874,0.57881 -23.10827,1.94487 -31.31008,3.03569 l -14.91234,1.9833 1.12427,10.67553 c 0.91695,8.70682 10.66707,50.81781 11.76606,50.81781 0.16955,0 8.59007,-1.48397 18.71224,-3.29772 z m -79.98241,-50.36035 c 10.6375,-3.53403 24.51273,-7.35881 30.83386,-8.49953 l 11.49295,-2.07402 -1.03488,-15.74127 c -0.5692,-8.65772 -1.4357,-18.8704 -1.92557,-22.69488 l -0.89065,-6.95359 -36.89694,0 -36.89695,0 0,7.18188 c 0,7.57891 3.36275,27.0468 7.8954,45.70866 2.1472,8.84047 3.27244,10.99481 5.39732,10.33363 1.4765,-0.45944 11.38796,-3.72683 22.02546,-7.26088 z m 270.77272,6.93067 c 0,-0.5035 1.92126,-9.15459 4.26948,-19.22464 2.34821,-10.07003 4.73084,-24.01519 5.29472,-30.98924 l 1.02526,-12.68008 -37.10144,0 -37.10144,0 -0.91972,6.13552 c -0.50586,3.37454 -1.4002,13.53777 -1.98745,22.58493 l -1.06773,16.44941 18.8253,4.5162 c 10.35391,2.48391 24.61527,6.63576 31.69189,9.22631 12.88715,4.71764 17.07113,5.6935 17.07113,3.98159 z m -175.75,-24.70834 16.81818,-1.37248 -22.70454,-0.81807 -22.70455,-0.81807 -0.51259,-7.77166 c -0.5896,-8.93885 -3.5809,-8.02357 27.42168,-8.39062 l 16.81819,-0.19911 0.50437,-9.40781 0.50439,-9.4078 -32.87939,0 -32.87937,0 0.0117,11.04394 c 0.007,6.07417 0.48225,15.8869 1.05706,21.80606 l 1.04509,10.76212 15.34067,-2.02701 c 8.43756,-1.11485 22.90904,-2.64463 32.15904,-3.39949 z m 104.01758,-5.05379 c 0.58968,-6.07417 1.07753,-16.01372 1.0841,-22.08789 l 0.0119,-11.04394 -32.87938,0 -32.8794,0 0.50441,9.4078 0.50437,9.40781 21.02273,0.22496 c 11.5625,0.1237 23.52385,0.30779 26.58078,0.40904 l 5.55805,0.18406 -0.51259,7.77167 -0.51261,7.77166 -26.90909,0.81807 -26.90909,0.81807 15.13636,1.39116 c 8.325,0.76514 21.94774,2.32964 30.27273,3.47665 8.325,1.14702 15.97295,2.17759 16.99544,2.29016 1.10354,0.12156 2.29481,-4.28371 2.93123,-10.83928 z M 267.91966,263.52862 c 0.48537,-4.72435 1.70727,-18.89741 2.71533,-31.49569 1.00808,-12.59827 2.25146,-24.85021 2.76311,-27.22652 0.90911,-4.2224 0.68777,-4.34781 -9.74205,-5.51968 -5.86974,-0.65951 -19.35884,-2.94876 -29.97575,-5.08723 -10.61691,-2.13847 -20.07714,-3.87896 -21.02273,-3.86775 -4.82227,0.0571 -16.90154,44.25099 -18.86493,69.02019 l -1.01197,12.76642 37.12826,0 37.12826,0 0.88247,-8.58974 z m 71.32253,-3.68376 0.48571,-11.45545 -8.28957,-2.86421 c -18.81219,-6.50004 -32.13677,-19.49544 -35.92047,-35.03306 -1.99645,-8.19838 -2.25261,-8.46973 -8.54683,-9.05367 -3.56878,-0.3311 -6.78641,-0.13338 -7.15026,0.43935 -2.48506,3.9117 -7.924,67.64274 -5.93767,69.5751 0.41492,0.40367 15.18118,0.53446 32.8139,0.29066 l 32.0595,-0.44329 0.48569,-11.45543 z m 89.01426,-10.34023 c -0.54677,-12.43754 -1.91843,-29.04138 -3.04812,-36.89743 l -2.05397,-14.28372 -5.18726,0.49333 c -4.81218,0.45766 -5.26969,1.05849 -6.32745,8.30977 -2.64208,18.1122 -18.03812,33.03319 -40.92861,39.66574 l -6.72727,1.94925 -0.5113,9.46001 c -0.28122,5.20302 -0.11571,10.46279 0.36766,11.6884 0.69947,1.77325 7.46885,2.22838 33.14473,2.22838 l 32.26575,0 -0.99416,-22.61373 z m 81.20459,14.22956 c 0,-13.06293 -7.81961,-48.15261 -14.37617,-64.51149 l -5.93683,-14.81269 -19.69577,4.5225 c -10.83268,2.48737 -24.50929,5.40553 -30.39247,6.48479 l -10.69672,1.96229 1.03127,6.69176 c 0.56719,3.68047 2.14826,20.31263 3.51349,36.96035 1.36521,16.64772 2.49819,30.45265 2.51771,30.67762 0.0195,0.22497 16.68549,0.40904 37.03549,0.40904 l 37,0 0,-8.38417 z M 296.21795,187.34746 c 3.88725,-12.87017 13.45049,-23.19912 27.8758,-30.1078 10.55294,-5.05409 12.2928,-5.37611 28.92284,-5.35311 14.66227,0.0203 19.08632,0.64521 25.81679,3.64685 16.45862,7.34018 29.97197,21.6165 32.4053,34.23489 0.94129,4.88126 1.49003,5.32029 5.48641,4.38939 2.44226,-0.5689 4.59093,-1.1385 4.77481,-1.26578 0.97057,-0.67184 -8.52729,-33.01824 -13.00843,-44.3021 -7.16282,-18.03664 -14.81716,-30.83736 -25.9262,-43.3577 -11.03261,-12.434206 -18.39532,-16.275586 -31.19514,-16.275586 -12.79981,0 -20.16253,3.84138 -31.19513,16.275586 -11.10799,12.51916 -18.7621,25.31893 -25.92735,43.3577 -4.69945,11.83102 -13.51388,42.17202 -13.51388,46.51745 0,0.96177 2.83807,1.74766 6.30682,1.74641 6.23409,-0.002 6.33992,-0.11186 9.17736,-9.5062 z m -18.0358,-4.80776 c 9.10186,-38.51907 25.08785,-69.81975 42.36969,-82.960156 4.78743,-3.64017 8.76073,-7.15228 8.82955,-7.80469 0.34011,-3.22466 -34.95637,8.05299 -40.96479,13.088736 -1.91305,1.60336 -8.80735,6.36503 -15.32066,10.58148 -20.69319,13.39594 -43.47094,38.81741 -55.53826,61.98435 l -4.04307,7.76192 12.43021,2.69035 c 19.05761,4.12476 36.48928,7.02715 43.18547,7.19044 l 6.05562,0.14766 2.99624,-12.68009 z m 196.73128,0.42262 c 5.51132,-1.432 10.29726,-2.87279 10.63538,-3.20174 0.33813,-0.32895 -0.68562,-3.05937 -2.27503,-6.0676 -10.5165,-19.90441 -34.29704,-45.73287 -53.62946,-58.24791 -6.5133,-4.21645 -13.4076,-8.97812 -15.32065,-10.58148 -6.02139,-5.046606 -41.25306,-16.295496 -40.99412,-13.088736 0.0526,0.65241 3.79307,3.92499 8.312,7.27241 16.78791,12.435736 33.3716,43.554566 41.22464,77.356916 1.46344,6.29914 3.01047,12.60524 3.43787,14.01356 0.69137,2.27816 2.86232,2.15181 19.68295,-1.14559 10.3982,-2.0384 23.41511,-4.87782 28.92642,-6.30983 z"
       style="fill:#50520a" />
    <path
       inkscape:connector-curvature="0"
       id="path3351"
       d="m 321.42847,459.41131 c -24.66551,-5.20991 -49.83463,-17.67913 -70.16189,-34.75942 -15.9485,-13.40096 -15.07884,-13.27395 -30.20701,-4.41167 -14.27492,8.36244 -13.13262,5.88086 1.51535,-3.29204 l 12.51684,-7.83831 -8.45094,-10.82183 c -4.64802,-5.952 -12.63362,-19.10478 -17.74578,-29.2284 -5.11217,-10.12361 -10.12055,-18.40657 -11.12974,-18.40657 -1.00919,0 -11.21373,5.19978 -22.67677,11.55506 -11.46302,6.35529 -21.17681,11.22922 -21.58619,10.83095 -1.20089,-1.16827 18.41752,-13.62952 31.71916,-20.14741 6.74424,-3.30473 12.39716,-6.08919 12.56203,-6.1877 0.16487,-0.0985 -1.47632,-6.83149 -3.64707,-14.96217 -4.26849,-15.98782 -7.5845,-36.38479 -7.5845,-46.65271 l 0,-6.42617 -32.79546,0 c -31.67424,0 -32.79546,-0.11191 -32.79546,-3.27228 0,-3.1604 1.12122,-3.27228 32.79546,-3.27228 l 32.79546,0 0.007,-7.77167 c 0.0116,-13.34887 4.80579,-38.10191 11.082,-57.21796 3.31536,-10.09781 6.14996,-18.80732 6.29912,-19.35448 0.14918,-0.54715 -5.02649,-2.78262 -11.50149,-4.9677 -13.70506,-4.62497 -33.40008,-13.72218 -32.2114,-14.87857 0.45017,-0.43794 7.88189,1.96161 16.51494,5.33234 8.63306,3.37072 18.91561,7.07918 22.85013,8.24102 l 7.15367,2.11243 3.60291,-6.87707 c 6.77257,-12.92726 19.08322,-29.75902 30.00601,-41.02581 25.89614,-26.7117 53.98023,-40.825506 94.61783,-47.550676 15.27259,-2.52748 17.52286,-2.52748 32.79545,0 27.87599,4.61324 45.44344,11.07442 67.69319,24.897076 17.89335,11.11625 40.11885,34.83437 52.98981,56.54852 4.26533,7.19589 5.14583,7.83989 9.54781,6.98341 4.83985,-0.94168 22.37214,-7.18796 33.11378,-11.79753 3.12076,-1.33922 5.99824,-2.11964 6.39439,-1.73425 1.36544,1.32835 -15.46386,9.5109 -28.54279,13.87774 -9.75946,3.25852 -12.90089,5.00473 -12.29009,6.83163 0.45129,1.34981 3.4668,9.81684 6.70112,18.81561 6.99374,19.45852 10.98426,37.59659 12.32874,56.03778 l 0.98409,13.49816 32.66899,0 c 30.20754,0 32.62634,0.21572 32.10341,2.86324 -0.51157,2.58988 -3.65449,2.90567 -32.91877,3.30761 l -32.35322,0.44437 0,6.39083 c 0,10.23508 -3.3214,30.64977 -7.58449,46.61739 -2.17078,8.13068 -3.81197,14.86567 -3.6471,14.96665 0.16482,0.10095 5.97591,2.83689 12.91341,6.07983 15.15793,7.08561 31.95454,17.36785 31.95454,19.56138 0,0.87214 -1.70284,0.5047 -3.78409,-0.81653 -7.24924,-4.60201 -39.39952,-20.88006 -41.23956,-20.88006 -1.0193,0 -5.27231,7.02166 -9.45117,15.60368 -7.20312,14.79295 -13.16094,24.45432 -22.15113,35.92096 l -3.98078,5.07732 12.45937,8.05822 c 6.85266,4.43202 12.14155,8.36741 11.7531,8.74531 -0.38845,0.37792 -1.67058,-0.0838 -2.84918,-1.02609 -3.27488,-2.61815 -20.95986,-11.84223 -22.70468,-11.84223 -0.84757,0 -4.90482,3.12912 -9.01612,6.9536 -23.31088,21.68454 -49.14452,35.32393 -78.27885,41.32884 -14.3385,2.95533 -45.02173,2.9235 -59.15312,-0.0614 z m 14.8053,0.18539 c 0,-0.37275 -3.73907,-2.91591 -8.30902,-5.65146 -13.21827,-7.91239 -26.78906,-26.49733 -36.29734,-49.70859 -2.48823,-6.07417 -5.06784,-11.04395 -5.73246,-11.04395 -4.92867,0 -42.16118,14.39764 -42.16118,16.30355 0,2.6093 21.95776,21.45292 33.35968,28.62845 15.57672,9.80285 26.98127,14.8475 42.51045,18.80391 12.70028,3.2357 16.62987,3.86617 16.62987,2.66809 z m 30.72216,-3.62572 c 11.27408,-5.64478 25.43501,-22.06035 34.52315,-40.01977 4.74036,-9.36762 9.08562,-18.96281 9.65615,-21.32266 1.1833,-4.8946 1.28147,-4.85441 -19.66675,-8.05133 -23.91618,-3.64987 -94.72348,0.31059 -100.16304,5.6024 -1.61484,1.57099 10.75624,26.96879 18.71689,38.42566 18.13953,26.10625 37.88459,34.90328 56.9336,25.3657 z m 24.80549,-1.58241 c 17.2739,-5.23617 39.92318,-18.70214 55.74433,-33.14242 7.2504,-6.61759 13.18256,-12.62306 13.18256,-13.34548 0,-2.42869 -43.19506,-18.02827 -44.39214,-16.0319 -0.16684,0.27823 -2.07637,4.92344 -4.24345,10.3227 -9.54706,23.78666 -23.94455,43.79686 -37.2372,51.75377 -4.56995,2.73555 -8.30902,5.31207 -8.30902,5.72561 0,1.25595 11.8891,-1.23077 25.25492,-5.28228 z m -141.0892,-51.96033 c 4.97136,-2.11947 14.33655,-5.52377 20.81155,-7.56512 6.475,-2.04135 12.2749,-4.17261 12.88867,-4.73615 0.61376,-0.56353 -0.9725,-8.75538 -3.52501,-18.20408 -2.55252,-9.44871 -5.60687,-23.25364 -6.78743,-30.67762 -1.22431,-7.69894 -2.96139,-13.49639 -4.0432,-13.49404 -5.55075,0.0115 -57.83639,15.53671 -63.21233,18.76898 -1.83113,1.10096 6.07179,19.87694 13.60795,32.33013 7.23377,11.95347 18.51417,27.43148 19.99212,27.43148 0.67587,0 5.29633,-1.73411 10.26768,-3.85358 z M 470.061,397.62828 c 7.81649,-10.42036 16.96176,-26.20718 22.44956,-38.75308 l 4.91965,-11.24696 -10.38232,-4.02793 c -9.80023,-3.8021 -39.5826,-12.52594 -50.85285,-14.89579 l -5.15237,-1.08342 -2.25311,13.56116 c -1.23922,7.45864 -4.29536,21.17286 -6.79146,30.47603 -3.04066,11.33285 -3.92685,17.10774 -2.68542,17.4993 23.64619,7.45823 34.02227,11.02858 37.70616,12.97454 6.48069,3.42333 7.31091,3.13661 13.04216,-4.50385 z M 318.57468,384.31977 c 9.25,-1.40842 25.52159,-2.55161 36.15909,-2.54042 17.81368,0.0186 49.17653,3.23871 55.86495,5.73559 2.26321,0.84489 3.33379,-0.67131 5.42194,-7.67868 3.95615,-13.27613 9.04499,-37.29257 9.65032,-45.54407 l 0.54006,-7.36208 -12.61363,-2.0646 c -14.05583,-2.30064 -48.55415,-4.96637 -49.71072,-3.8412 -0.40911,0.39799 -0.74383,8.33167 -0.74383,17.63041 l 0,16.90677 -11.77273,0 -11.77272,0 0,-17.0829 c 0,-9.3956 -0.56761,-17.40515 -1.26137,-17.799 -1.6863,-0.95732 -31.78118,1.41713 -48.99319,3.8655 l -13.79942,1.96294 1.08006,7.57314 c 1.49252,10.46506 6.95906,35.22774 10.11398,45.81482 l 2.61974,8.79118 6.19966,-0.90333 c 3.40979,-0.49683 13.76781,-2.05566 23.01781,-3.46407 z m -84.93182,-50.50901 c 10.6375,-3.15472 23.50341,-6.77146 28.59091,-8.03721 5.71078,-1.42084 9.07334,-3.09463 8.78831,-4.37461 -0.25394,-1.14028 -0.93834,-11.22237 -1.52091,-22.40463 l -1.05921,-20.33139 -37.83321,0 -37.83321,0 1.06769,14.63312 c 1.0917,14.96211 6.59242,42.20598 9.64034,47.74638 1.5337,2.78793 2.13682,2.86452 6.25783,0.79472 2.5083,-1.2598 13.26396,-4.87167 23.90146,-8.02638 z m 267.20066,3.34416 c 4.89886,-17.83 7.04412,-29.39515 8.04257,-43.35771 l 1.08227,-15.13429 -38.09457,0 -38.09457,0 -0.14194,12.68008 c -0.078,6.97405 -0.72837,17.09766 -1.44512,22.49692 -0.71677,5.39926 -1.1728,9.98599 -1.0134,10.19271 0.15944,0.20673 8.94551,2.53226 19.52469,5.16782 10.57915,2.63557 25.28938,6.97866 32.68937,9.65129 7.40001,2.67265 13.92381,4.94877 14.49735,5.05806 0.57353,0.10929 1.90252,-2.93041 2.95332,-6.75488 z M 296.71105,320.36441 c 9.24999,-1.30378 20.98068,-2.39489 26.06817,-2.42466 10.44761,-0.0612 16.81819,-1.35856 16.81819,-3.4251 0,-0.7688 -10.02784,-1.60325 -22.2841,-1.85433 l -22.28409,-0.45654 0,-6.54456 0,-6.54456 22.28409,-0.45653 22.2841,-0.45651 0,-9.76936 0,-9.76934 -33.8887,0 -33.88871,0 1.13962,19.61743 c 0.62679,10.78959 1.57813,20.72914 2.11409,22.08789 1.16828,2.96175 0.59663,2.96185 21.63734,-0.003 z m 130.9555,0.003 c 0.53597,-1.35875 1.48731,-11.2983 2.1141,-22.08789 l 1.13962,-19.61687 -33.88871,0 -33.8887,0 0,9.77529 0,9.77529 26.48864,0.45059 26.48863,0.45057 0.51504,6.91158 0.51506,6.91158 -26.58324,0.45105 c -30.88986,0.52412 -35.64017,3.12599 -8.92413,4.888 9.7125,0.64058 21.82159,1.84297 26.9091,2.67198 13.99571,2.28062 18.03436,2.15796 19.11459,-0.58061 z M 268.97629,259.43827 c 0.0135,-11.84817 4.18064,-52.79125 5.82115,-57.20472 0.4609,-1.23994 -1.60067,-2.32862 -5.49246,-2.90049 -9.97617,-1.46591 -51.30117,-8.93137 -55.1756,-9.96759 -3.20208,-0.85641 -4.10962,0.73346 -9.60453,16.82574 -6.46239,18.92555 -11.22776,43.23713 -11.23886,57.33741 l -0.007,8.58974 37.84091,0 37.84091,0 0.0152,-12.68009 z m 70.2714,0.25971 -0.49119,-12.4204 -7.90922,-2.71389 c -17.30064,-5.93641 -31.18362,-19.6022 -35.12945,-34.57983 -1.99331,-7.56624 -2.4917,-8.09003 -8.66284,-9.10433 -3.60134,-0.59191 -7.01852,-0.61835 -7.59373,-0.0588 -1.71699,1.67036 -5.28888,29.79569 -6.50933,51.25487 l -1.13988,20.04271 33.96342,0 33.96343,0 -0.49121,-12.42037 z m 90.58405,-7.62233 c -0.95107,-17.28312 -5.3043,-53.42628 -6.56157,-54.47817 -0.23252,-0.19454 -2.88242,0.0108 -5.88867,0.45614 -4.2653,0.63196 -5.46591,1.6035 -5.46591,4.42304 0,17.94456 -21.24476,39.63915 -43.30682,44.22376 l -5.46591,1.13584 0,12.14106 0,12.14104 33.8959,0 33.89591,0 -1.10293,-20.04271 z m 79.62254,11.45297 c -0.008,-10.94438 -4.04024,-34.93849 -8.17866,-48.67516 -3.66733,-12.17299 -9.94098,-28.01825 -11.84868,-29.92606 -0.71147,-0.7115 -6.90107,0.19604 -13.75472,2.01675 -6.85364,1.8207 -18.89413,4.44301 -26.75663,5.82735 -23.09661,4.06659 -22.30838,3.77395 -21.24697,7.88813 2.05152,7.95185 6.08094,46.80843 6.09535,58.77864 l 0.0153,12.68009 37.84091,0 37.84091,0 -0.007,-8.58974 z M 294.98247,192.43264 c 2.89015,-14.98746 16.86988,-30.11039 33.76818,-36.52963 14.00525,-5.32024 34.59736,-5.32024 48.6026,0 15.98434,6.07204 30.01391,20.64689 33.51481,34.81739 0.8468,3.42752 2.11819,4.49939 5.3369,4.49939 2.32391,0 4.63645,-1.04238 5.13899,-2.3164 1.18855,-3.01322 -6.16404,-29.79214 -12.72274,-46.33749 -9.72812,-24.54075 -28.00179,-48.786706 -41.14694,-54.594856 -8.91094,-3.93727 -23.29734,-3.93727 -32.20827,0 -3.76978,1.66566 -10.55068,7.10732 -15.06868,12.092586 -16.63072,18.35066 -27.3945,40.37347 -36.15661,73.97669 -5.14765,19.74158 -5.0622,20.06732 5.33543,20.33675 3.81847,0.099 4.60092,-0.73069 5.60633,-5.94443 z m -18.30548,-0.0761 c 11.02339,-47.11276 27.52793,-81.38939 45.3176,-94.115546 8.84495,-6.32741 9.35741,-7.99206 2.04599,-6.64621 -28.76566,5.29502 -64.93831,28.344916 -87.20648,55.569646 -7.8632,9.61344 -23.37305,34.06291 -23.37305,36.84491 0,1.7703 9.25929,4.22878 29.43182,7.81459 16.19627,2.879 21.36769,3.68637 30.66114,4.78685 1.13861,0.13483 2.54396,-1.77958 3.12298,-4.25424 z m 179.80678,-4.66971 c 10.175,-2.16093 21.38321,-4.70995 24.90712,-5.66448 l 6.40713,-1.73552 -5.38392,-9.30395 c -8.17911,-14.13438 -22.30692,-31.68362 -33.96052,-42.185 -19.62973,-17.68888 -49.08414,-33.398326 -69.75391,-37.203096 -7.31141,-1.34585 -6.79895,0.3188 2.046,6.64621 14.93145,10.681466 32.6519,43.951036 41.19655,77.345116 1.95717,7.64895 3.8787,14.81471 4.2701,15.92391 0.80317,2.27618 2.65043,2.04288 30.27145,-3.82319 z"
       style="fill:#712b05" />
    <path
       inkscape:connector-curvature="0"
       id="path3349"
       d="m 321.28543,459.48168 c -25.78744,-5.67952 -49.11819,-17.82651 -72.32703,-37.65653 -7.37244,-6.29914 -13.45604,-11.97152 -13.51909,-12.60529 -0.063,-0.63378 -3.88252,-6.05596 -8.48771,-12.04932 -4.60519,-5.99335 -12.65966,-19.27974 -17.89882,-29.52531 -5.23914,-10.24557 -9.82142,-18.6283 -10.18282,-18.6283 -1.86415,0 -19.7922,9.61054 -31.31057,16.7844 -7.20841,4.48952 -13.48788,7.79145 -13.95439,7.33762 -1.13659,-1.10572 17.51976,-12.47367 32.57828,-19.85106 13.32391,-6.52757 13.71156,-7.29505 9.65415,-19.11379 -3.22438,-9.39225 -7.60366,-34.34248 -7.60366,-43.32063 0,-12.82333 1.79897,-12.19055 -34.65721,-12.19055 -31.4943,0 -32.61552,-0.11249 -32.61552,-3.27228 0,-3.16014 1.12122,-3.27228 32.71925,-3.27228 l 32.71925,0 0.84876,-5.31746 c 0.46682,-2.9246 1.3124,-10.47129 1.87907,-16.77043 1.35704,-15.08495 4.68835,-29.35623 11.17219,-47.86134 2.91734,-8.32621 4.99087,-15.37978 4.60787,-15.67461 -0.38302,-0.29484 -6.37252,-2.4607 -13.31002,-4.81303 -17.48036,-5.92714 -33.18473,-12.94004 -30.83152,-13.76803 1.08017,-0.38006 6.3779,1.45618 11.77273,4.08055 10.29061,5.00596 29.28696,11.7728 33.04944,11.7728 1.2125,0 3.5036,-2.65017 5.09135,-5.88927 5.79986,-11.8321 21.69529,-33.2531 32.69334,-44.05819 26.7376,-26.26849 50.69747,-38.396096 89.07693,-45.087476 l 18.92045,-3.29874 18.92046,3.29874 c 22.34379,3.8956 34.98123,7.90135 49.61552,15.726886 29.07563,15.5479 50.66524,37.14909 71.97144,72.01003 1.67479,2.74027 2.1887,2.73698 10.93181,-0.07 5.04593,-1.62003 14.77757,-5.4203 21.62587,-8.44505 6.84831,-3.02475 12.78699,-5.17314 13.19707,-4.7742 1.14536,1.11426 -10.58343,6.463 -27.33035,12.46362 -8.325,2.98294 -15.3699,5.58336 -15.65534,5.7787 -0.28544,0.19534 0.7364,3.19573 2.27078,6.66753 9.09692,20.58361 14.81974,41.84707 16.67079,61.94113 0.58026,6.29913 1.43393,13.83004 1.89702,16.73533 l 0.842,5.28236 32.30556,0.44413 c 27.39193,0.37657 32.30556,0.81741 32.30556,2.89834 0,2.0795 -4.86725,2.52235 -31.87902,2.90058 -22.92526,0.32099 -32.24727,1.0103 -33.19014,2.45421 -0.72114,1.10431 -1.32275,5.40864 -1.33692,9.56518 -0.0323,9.49794 -4.34638,34.30046 -7.62941,43.86349 -4.15045,12.08978 -3.9212,12.45906 12.74379,20.52765 19.69589,9.53602 30.17806,15.54393 30.17806,17.29668 0,0.77041 -5.69918,-1.8772 -12.66485,-5.88356 -12.05671,-6.93452 -31.87125,-17.09794 -33.33404,-17.09794 -0.37715,0 -4.88213,8.28296 -10.01107,18.40657 -5.12896,10.12362 -12.78856,22.99662 -17.02135,28.60666 -4.23278,5.61005 -7.69596,10.68272 -7.69596,11.27261 0,0.58988 1.32443,2.11463 2.94318,3.38832 2.6478,2.08341 2.55749,2.13369 -0.90001,0.50107 -3.47711,-1.64187 -5.10884,-0.67087 -17.12961,10.19334 -16.81049,15.19312 -38.34158,27.71945 -58.8712,34.25004 -14.21907,4.52317 -18.6661,5.15868 -39.56509,5.65417 -16.3505,0.38765 -26.82852,-0.16484 -34.28925,-1.80803 z m 11.58471,-2.14199 c -15.9665,-10.49273 -30.76157,-30.05055 -40.28894,-53.25856 -3.75276,-9.14147 -5.4851,-11.60795 -7.90614,-11.25672 -2.78557,0.40409 -2.81713,0.27973 -0.31068,-1.22485 2.58387,-1.55106 2.55269,-2.42927 -0.42257,-11.90275 -1.76676,-5.62548 -4.75471,-18.32703 -6.63989,-28.22567 -1.88519,-9.89865 -3.75846,-19.52916 -4.16282,-21.40114 -0.59121,-2.73696 -1.81354,-3.31193 -6.24073,-2.93554 l -5.50551,0.46805 5.04545,-1.19612 5.04546,-1.19613 -0.43747,-13.04779 c -0.24062,-7.17629 -0.86848,-17.64945 -1.39524,-23.27368 l -0.95775,-10.22587 -38.71864,0 -38.71865,0 1.12036,11.86201 c 2.13093,22.56189 9.14104,53.58358 12.10851,53.58358 0.55987,0 8.29547,-2.52712 17.19023,-5.6158 17.28199,-6.00117 37.14077,-11.34374 38.22931,-10.28478 0.3642,0.35432 -5.20645,2.17777 -12.37924,4.05211 -20.42279,5.33675 -42.47324,13.58585 -42.47324,15.88929 0,1.15237 2.67162,7.79845 5.93692,14.76909 9.87246,21.0753 27.72304,46.18967 31.30117,44.03831 0.77287,-0.46466 1.00039,0.18143 0.5056,1.43579 -1.17629,2.9821 18.36832,20.767 32.78926,29.83709 13.15118,8.27144 28.36685,14.70105 44.5784,18.83721 14.93023,3.80926 18.19472,3.87937 12.70684,0.27287 z m 37.72462,-3.36914 c 4.83001,-2.634 12.04402,-8.8354 16.64307,-14.30696 8.32551,-9.90498 24.51994,-39.78688 25.30765,-46.69756 0.24222,-2.12502 1.22712,-5.3362 2.18868,-7.13596 5.07608,-9.50093 14.68183,-57.95405 11.69754,-59.00447 -1.04636,-0.36829 -4.92974,-1.38909 -8.62975,-2.26847 -6.47353,-1.53854 -6.39985,-1.5652 1.9537,-0.70691 l 8.68097,0.89192 0.94012,-10.35953 c 0.51708,-5.69774 1.22709,-16.06556 1.57782,-23.03961 l 0.63768,-12.68008 -35.14584,0 -35.14585,0 0.50069,10.22587 0.50071,10.22587 26.48864,0.45058 26.48864,0.45059 0,6.46146 0,6.46146 -26.48864,0.4506 c -16.56581,0.28179 -26.34226,1.06349 -26.09786,2.08671 0.21491,0.89988 3.62059,1.95666 7.56818,2.34839 l 7.1774,0.71226 -7.56818,0.92388 -7.56818,0.92389 -0.47735,17.58851 -0.47735,17.5885 -9.97712,0 -9.97711,0 -0.47735,-17.5885 -0.47736,-17.58851 -9.24999,-0.91035 -9.25001,-0.91034 8.85161,-0.7258 c 4.86839,-0.39918 9.0309,-1.46205 9.25001,-2.36193 0.24613,-1.0108 -8.11858,-1.81061 -21.88571,-2.09267 l -22.28409,-0.45651 0,-6.44959 0,-6.44958 22.28409,-0.45651 22.28409,-0.45654 0.50072,-10.22587 0.50069,-10.22587 -34.97796,-10e-4 -34.97799,-0.001 0.58865,15.95364 c 0.32375,8.77449 1.10728,18.89868 1.74117,22.49818 l 1.15252,6.54456 7.50883,-0.31108 c 7.21727,-0.29899 7.27805,-0.26358 1.56534,0.9121 -7.95922,1.63801 -9.83669,2.95013 -9.09193,6.35421 0.34436,1.57389 2.1939,10.9605 4.11012,20.85915 3.54863,18.33113 7.31269,32.09381 10.17411,37.19998 0.87566,1.56258 1.5921,3.96746 1.5921,5.34419 0,1.37673 3.293,9.30153 7.3178,17.6107 20.48873,42.29891 45.61154,56.98188 72.45228,42.34454 z m -66.63087,-66.80393 c 1.21405,-0.47263 2.66462,-0.41451 3.22348,0.12909 0.55886,0.54368 -0.43448,0.93038 -2.20739,0.85934 -1.95923,-0.0785 -2.35773,-0.46621 -1.01609,-0.98849 z m 99.22726,0 c 1.21406,-0.47263 2.66463,-0.41451 3.2235,0.12909 0.55885,0.54368 -0.43448,0.93038 -2.20739,0.85934 -1.95923,-0.0785 -2.35774,-0.46621 -1.01611,-0.98849 z m -89.13636,-1.63614 c 1.21406,-0.47263 2.66462,-0.41451 3.2235,0.12909 0.55884,0.54368 -0.43449,0.93038 -2.20739,0.85934 -1.95924,-0.0785 -2.35774,-0.46621 -1.01611,-0.98849 z m 79.04546,0 c 1.21405,-0.47263 2.66462,-0.41451 3.22349,0.12909 0.55885,0.54368 -0.43449,0.93038 -2.20739,0.85934 -1.95924,-0.0785 -2.35774,-0.46621 -1.0161,-0.98849 z m -100.1413,-63.82562 c 1.63637,-0.41482 3.90682,-0.38755 5.04546,0.0607 1.13865,0.44819 -0.20018,0.78759 -2.97519,0.75425 -2.775,-0.0334 -3.70662,-0.40004 -2.07027,-0.81486 z m 109.28618,0.007 c 1.61875,-0.41152 4.26761,-0.41152 5.88637,0 1.61875,0.41154 0.29431,0.74825 -2.94319,0.74825 -3.2375,0 -4.56193,-0.33671 -2.94318,-0.74825 z m -97.54545,-1.68019 c 2.54375,-0.37489 6.70625,-0.37489 9.25,0 2.54375,0.37488 0.4625,0.6816 -4.625,0.6816 -5.0875,0 -7.16875,-0.30672 -4.625,-0.6816 z m 80.72727,0 c 2.54375,-0.37489 6.70626,-0.37489 9.25,0 2.54375,0.37488 0.4625,0.6816 -4.625,0.6816 -5.0875,0 -7.16875,-0.30672 -4.625,-0.6816 z m -3.49971,137.10996 c 16.77553,-4.17392 31.78966,-10.45888 45.33041,-18.97539 14.37212,-9.03941 35.55406,-28.404 34.36555,-31.41706 -0.49299,-1.24985 -0.25822,-1.88876 0.52172,-1.41983 1.9867,1.1945 7.00319,-4.4816 15.97242,-18.0726 7.81619,-11.84385 19.57098,-35.31256 19.57098,-39.07397 0,-3.54885 -60.87639,-21.91691 -66.13363,-19.95431 -1.29132,0.48207 -3.04271,6.40788 -4.28074,14.48398 -2.37502,15.49295 -9.53434,43.82103 -13.02731,51.5466 -1.28208,2.83563 -2.33105,5.54524 -2.33105,6.02137 0,2.39146 -10.65689,22.73685 -16.4277,31.36258 -6.2753,9.37981 -16.58683,19.71775 -25.61776,25.68338 -5.50955,3.63948 -3.16879,3.60362 12.05711,-0.18475 z M 502.46187,333.88264 c 3.47459,-11.0109 6.21353,-26.54654 7.7882,-44.17578 l 0.98647,-11.04394 -38.58517,0 -38.58516,0 -0.97192,11.86201 c -0.53455,6.52411 -1.16673,16.95807 -1.40486,23.18657 l -0.43294,11.32458 17.6591,4.38344 c 9.7125,2.41091 24.09204,6.6417 31.95454,9.40179 7.8625,2.76008 15.21107,5.07884 16.33015,5.15277 1.11909,0.074 3.4868,-4.46721 5.26159,-10.09144 z M 269.67375,257.80213 c 1.09851,-15.49916 3.7651,-41.28046 5.40304,-52.23792 1.01289,-6.77597 0.97271,-6.84089 -4.64929,-7.50983 l -5.67101,-0.67477 5.88638,-0.29114 5.88636,-0.29115 4.63933,-18.20925 c 9.06182,-35.56744 21.83146,-60.86538 39.3616,-77.97931 10.36014,-10.114166 10.47772,-10.325766 5.16394,-9.293376 -37.48939,7.28363 -71.3762,30.064806 -97.36389,65.455116 -7.14077,9.72435 -16.67775,27.10924 -15.70852,28.6349 0.3772,0.59375 4.94159,2.00608 10.14308,3.1385 5.20148,1.13243 9.13342,2.37398 8.73765,2.75902 -0.39578,0.38503 -4.53725,-0.15724 -9.20327,-1.20503 -4.66601,-1.04779 -9.61801,-1.48161 -11.00443,-0.96404 -5.60719,2.09324 -16.48659,42.15482 -18.87021,69.48635 l -1.1772,13.49816 38.7059,0 38.70588,0 1.01466,-14.31623 z M 255.95896,195.7221 c 1.63636,-0.41484 3.90681,-0.38755 5.04545,0.0606 1.13864,0.44817 -0.20019,0.78758 -2.97519,0.75424 -2.77499,-0.0334 -3.70662,-0.40004 -2.07026,-0.81487 z m -18.11156,-2.13845 c -6.99399,-1.73134 -0.11032,-1.80817 8.4091,-0.0939 5.65617,1.13816 5.92393,1.35283 1.68182,1.34827 -2.77501,-0.003 -7.31591,-0.56746 -10.09092,-1.2544 z m 103.43182,66.22858 c 0,-11.24974 -0.32484,-12.42822 -3.78409,-13.72839 -14.5556,-5.47081 -19.76803,-8.23713 -26.05704,-13.82887 -9.14163,-8.12804 -13.71034,-15.38963 -15.25561,-24.24752 l -1.23183,-7.06117 -8.53076,-0.48579 -8.53075,-0.48578 -1.88278,11.12069 c -1.03551,6.11638 -2.30949,18.48332 -2.83105,27.48209 -0.52156,8.99877 -1.31135,20.22678 -1.75506,24.95113 l -0.80677,8.58974 35.33287,0 35.33287,0 0,-12.30613 z m 90.06266,2.08025 c -0.46706,-5.62423 -1.27322,-16.85224 -1.79147,-24.95113 -0.88427,-13.81872 -3.25735,-30.73464 -5.22177,-37.22218 -0.56906,-1.87935 -2.7063,-2.93981 -6.21957,-3.08606 -4.57874,-0.1906 -4.74471,-0.3289 -1.14803,-0.95661 2.3125,-0.40359 4.75314,-1.24195 5.42363,-1.86303 1.50228,-1.39157 -5.52082,-28.78229 -11.03253,-43.02783 -11.76759,-30.41451 -26.72709,-50.39291 -44.34167,-59.218236 -6.69282,-3.35326 -22.12909,-3.52119 -29.98916,-0.32625 -23.23992,9.446526 -43.79823,44.070906 -56.0961,94.477276 -3.0551,12.52222 -2.92646,12.77364 6.53583,12.77364 7.87693,0 8.40909,-0.26218 8.40909,-4.1429 0,-12.30165 12.39095,-27.89066 28.17908,-35.45204 10.59209,-5.07284 12.34371,-5.39891 29.00275,-5.39891 16.6956,0 18.39416,0.31818 29.11907,5.45463 20.08586,9.61967 30.68501,27.21943 27.9899,46.47688 -1.59378,11.3881 -5.8097,18.36359 -17.03064,28.17818 -6.2634,5.47837 -11.56802,8.34734 -20.08992,10.86548 l -11.57933,3.42159 0,12.11169 0,12.11169 35.36502,0 35.36502,0 -0.8492,-10.22588 z m 78.97149,-1.63614 c -2.36354,-27.13654 -9.47782,-55.83324 -17.79751,-71.78937 l -3.09442,-5.93476 -15.58687,3.93847 c -8.57279,2.16615 -16.65875,3.73239 -17.96881,3.48054 -1.31004,-0.25186 5.29365,-2.20573 14.67486,-4.34194 9.38124,-2.13621 17.05678,-4.5584 17.05678,-5.38264 0,-2.82038 -7.19088,-15.27113 -14.9197,-25.83293 -18.22649,-24.90736 -44.92904,-45.88179 -70.74009,-55.565236 -12.12113,-4.54744 -27.20153,-8.69239 -28.176,-7.74437 -0.22237,0.21632 4.5048,5.38522 10.50478,11.486436 14.17614,14.41534 26.75123,38.93223 35.56259,69.33425 6.24345,21.54184 6.31536,21.68041 11.37805,21.924 5.07708,0.24429 5.07871,0.24754 0.46992,0.92675 -5.49517,0.80984 -5.45104,0.27648 -2.13672,25.82441 1.40089,10.79853 2.99838,26.81225 3.54998,35.58604 l 1.00292,15.95237 38.62671,0 38.62669,0 -1.03316,-11.86202 z m -68.96596,-68.30883 c 2.775,-0.68694 6.55908,-1.2627 8.40909,-1.27947 2.63574,-0.0239 2.45375,0.25299 -0.84091,1.27947 -2.31251,0.72047 -6.0966,1.29624 -8.40909,1.27947 -3.7767,-0.0274 -3.69113,-0.1576 0.84091,-1.27947 z m -230.325,232.5937 c 2.64202,-2.27257 14.21136,-8.76521 14.21136,-7.97535 0,0.98519 -13.05778,9.34964 -14.59576,9.34964 -0.66733,0 -0.49435,-0.61843 0.3844,-1.37429 z m 275.23509,-4.23615 c -7.38658,-5.08096 -9.18512,-7.25348 -2.86464,-3.4603 8.73898,5.24463 11.73365,7.43722 10.04468,7.35436 -0.89958,-0.0442 -4.13058,-1.79644 -7.18004,-3.89406 z m -259.34191,-4.90933 c 0,-0.44994 1.51363,-1.60615 3.36363,-2.56935 1.85,-0.96319 3.36364,-1.38314 3.36364,-0.9332 0,0.44994 -1.51364,1.60615 -3.36364,2.56934 -1.85,0.9632 -3.36363,1.38315 -3.36363,0.93321 z"
       style="fill:#960603" />
  </g>
</svg>
